<svg width="96" height="96" xmlns="http://www.w3.org/2000/svg" xmlns:xlink="http://www.w3.org/1999/xlink" xml:space="preserve" overflow="hidden"><g transform="translate(88 -171)"><path d="M-13.6 244.3-31.6 238.1-31.7 238.1-38.9 235.6-5.2 191.1-13.6 244.3ZM-36.1 240.9-42.7 247.5-40.9 239.3-36.1 240.9-36.1 240.9ZM-44.1 235.8C-44.3 236-44.4 236.3-44.5 236.6L-44.8 237.9-46.8 247-51.6 233-14.2 197-42.9 234.3-44.1 235.8ZM-73 224-14.4 192.8-54.5 230.3-73 224ZM-0.800003 182.4C-1.4 181.9-2.3 181.9-3 182.3L-78.9 222.6C-79.6 223-80 223.7-80 224.5-80 225.3-79.4 226-78.7 226.2L-57.9 233.3-55.3 234.2-54.7 235.9-48.5 254.5-48.5 254.6-48.5 254.7C-48.3 255.3-47.7 255.8-47 256-46.3 256.2-45.6 256-45.1 255.5L-45 255.4-44.4 254.8-31.8 242.4-12.6 249C-12 249.2-11.4 249.1-10.9 248.8-10.4 248.5-10 248-9.9 247.4L0.0999985 184.4C0.199997 183.5-0.199997 182.8-0.800003 182.4Z" stroke="#B885EC" fill="#B885EC"/></g></svg>